    <svg
              version="1.1"
              height="20"
              width="20"
              id="Capa_1"
              xmlns="http://www.w3.org/2000/svg"
              xmlnsXlink="http://www.w3.org/1999/xlink"
              x="0px"
              y="0px"
              viewBox="0 0 22.773 22.773"
              style={{ enableBackground: 'new 0 0 22.773 22.773' }}
              xmlSpace="preserve"
            >
              <g>
                <path d="M11.386 0C12.1 0 12.8.3 13.4.8c.7.6 1.1 1.4 1.1 2.2 0 1.2-.5 2.3-1.3 3.1-.6.5-1.5.9-2.4.9-.8 0-1.7-.4-2.3-.9-.8-.7-1.4-1.8-1.4-2.8 0-.8.3-1.7 1-2.3C9.2.4 10.3 0 11.386 0zm6.3 14.3c-.3-.5-.6-.9-1-1.4-.6-.7-1.4-1-2.4-1-1 0-1.7.4-2.3.4-.6 0-1.4-.4-2.3-.4-1 0-1.8.3-2.4 1-.4.4-.7.8-1 1.4-.5.8-.7 1.7-.7 2.6 0 .8.2 1.6.6 2.3.3.7.8 1.2 1.5 1.5.6.3 1.3.5 2 .5.6 0 1.1-.1 1.5-.4.4-.2.8-.3 1.2-.3s.8.1 1.2.3c.5.3 1 .4 1.5.4.7 0 1.4-.2 2-.5.7-.4 1.2-1 1.5-1.7.3-.6.5-1.4.5-2.1.1-.8-.1-1.7-.6-2.5z" />
              </g>
            </svg>