<svg xmlns="http://www.w3.org/2000/svg" viewBox="0 0 30 30" width="30px" height="60px"><g data-name="19-Email-Process"><path d="M29 3H3a3 3 0 0 0-3 3v18a3 3 0 0 0 3 3h12v-2H3a1 1 0 0 1-1-1V6.23l13.42 9.58a1 1 0 0 0 1.16 0L30 6.23V15h2V6a3 3 0 0 0-3-3zM16 13.77 3.72 5h24.56z"/><path d="m28.17 20.25 1.54-1.54-1.41-1.41-1.54 1.54A5 5 0 0 0 25 18.1V16h-2v2.1a5 5 0 0 0-1.75.73l-1.54-1.54-1.41 1.41 1.54 1.54A5 5 0 0 0 19.1 22H17v2h2.1a4.93 4.93 0 0 0 .38 1.11l-1.19 1.19 1.41 1.41 1-1A5 5 0 0 0 23 27.9V30h2v-2.1a5 5 0 0 0 2.31-1.18l1 1 1.41-1.41-1.19-1.19A4.93 4.93 0 0 0 28.9 24H31v-2h-2.1a5 5 0 0 0-.73-1.75zM24 26a3 3 0 1 1 3-3 3 3 0 0 1-3 3z"/></g></svg>